<svg width="940" height="300" viewBox="0 0 940 300" fill="none" xmlns="http://www.w3.org/2000/svg">
<rect opacity="0.4" width="940" height="300" rx="4" fill="black"/>
<mask id="mask0" mask-type="alpha" maskUnits="userSpaceOnUse" x="0" y="0" width="940" height="300">
<rect width="940" height="300" rx="4" fill="white"/>
</mask>
<g mask="url(#mask0)">
</g>
<path opacity="0.3" d="M485.715 114.965L495.84 133L485.715 151.035H476.75L486.875 133L480.969 122.559L463.25 151.035H454.285L444.16 133L454.285 114.965H463.25L453.125 133L459.031 143.441L476.75 114.965H485.715Z" fill="white"/>
<path opacity="0.3" d="M387.643 184.27C387.643 183.716 387.447 183.293 387.057 183C386.666 182.701 385.963 182.388 384.947 182.062C383.932 181.73 383.128 181.405 382.535 181.086C380.921 180.214 380.113 179.038 380.113 177.561C380.113 176.792 380.328 176.109 380.758 175.51C381.194 174.904 381.816 174.432 382.623 174.094C383.437 173.755 384.348 173.586 385.357 173.586C386.373 173.586 387.278 173.771 388.072 174.143C388.867 174.507 389.482 175.025 389.918 175.695C390.361 176.366 390.582 177.128 390.582 177.98H387.652C387.652 177.329 387.447 176.825 387.037 176.467C386.627 176.102 386.051 175.92 385.309 175.92C384.592 175.92 384.036 176.073 383.639 176.379C383.242 176.678 383.043 177.076 383.043 177.57C383.043 178.033 383.274 178.42 383.736 178.732C384.205 179.045 384.892 179.338 385.797 179.611C387.464 180.113 388.678 180.734 389.439 181.477C390.201 182.219 390.582 183.143 390.582 184.25C390.582 185.48 390.117 186.447 389.186 187.15C388.255 187.847 387.001 188.195 385.426 188.195C384.332 188.195 383.336 187.997 382.438 187.6C381.539 187.196 380.852 186.646 380.377 185.949C379.908 185.253 379.674 184.445 379.674 183.527H382.613C382.613 185.096 383.551 185.881 385.426 185.881C386.122 185.881 386.666 185.741 387.057 185.461C387.447 185.174 387.643 184.777 387.643 184.27ZM397.252 188.195C395.702 188.195 394.439 187.72 393.463 186.77C392.493 185.819 392.008 184.553 392.008 182.971V182.697C392.008 181.636 392.213 180.689 392.623 179.855C393.033 179.016 393.613 178.371 394.361 177.922C395.117 177.466 395.976 177.238 396.939 177.238C398.385 177.238 399.521 177.694 400.348 178.605C401.181 179.517 401.598 180.809 401.598 182.482V183.635H394.869C394.96 184.325 395.234 184.878 395.689 185.295C396.152 185.712 396.734 185.92 397.438 185.92C398.525 185.92 399.374 185.526 399.986 184.738L401.373 186.291C400.95 186.89 400.377 187.359 399.654 187.697C398.932 188.029 398.131 188.195 397.252 188.195ZM396.93 179.523C396.37 179.523 395.914 179.712 395.562 180.09C395.217 180.467 394.996 181.008 394.898 181.711H398.824V181.486C398.811 180.861 398.642 180.38 398.316 180.041C397.991 179.696 397.529 179.523 396.93 179.523ZM406.188 188H403.355V173H406.188V188ZM413.385 188.195C411.835 188.195 410.572 187.72 409.596 186.77C408.626 185.819 408.141 184.553 408.141 182.971V182.697C408.141 181.636 408.346 180.689 408.756 179.855C409.166 179.016 409.745 178.371 410.494 177.922C411.249 177.466 412.109 177.238 413.072 177.238C414.518 177.238 415.654 177.694 416.48 178.605C417.314 179.517 417.73 180.809 417.73 182.482V183.635H411.002C411.093 184.325 411.367 184.878 411.822 185.295C412.285 185.712 412.867 185.92 413.57 185.92C414.658 185.92 415.507 185.526 416.119 184.738L417.506 186.291C417.083 186.89 416.51 187.359 415.787 187.697C415.064 188.029 414.264 188.195 413.385 188.195ZM413.062 179.523C412.503 179.523 412.047 179.712 411.695 180.09C411.35 180.467 411.129 181.008 411.031 181.711H414.957V181.486C414.944 180.861 414.775 180.38 414.449 180.041C414.124 179.696 413.661 179.523 413.062 179.523ZM423.736 185.92C424.257 185.92 424.68 185.777 425.006 185.49C425.331 185.204 425.501 184.823 425.514 184.348H428.16C428.154 185.064 427.958 185.721 427.574 186.32C427.19 186.913 426.663 187.375 425.992 187.707C425.328 188.033 424.592 188.195 423.785 188.195C422.275 188.195 421.083 187.717 420.211 186.76C419.339 185.796 418.902 184.468 418.902 182.775V182.59C418.902 180.962 419.335 179.663 420.201 178.693C421.067 177.723 422.255 177.238 423.766 177.238C425.087 177.238 426.145 177.616 426.939 178.371C427.74 179.12 428.147 180.119 428.16 181.369H425.514C425.501 180.822 425.331 180.38 425.006 180.041C424.68 179.696 424.251 179.523 423.717 179.523C423.059 179.523 422.561 179.764 422.223 180.246C421.891 180.721 421.725 181.496 421.725 182.57V182.863C421.725 183.951 421.891 184.732 422.223 185.207C422.555 185.682 423.059 185.92 423.736 185.92ZM432.75 188H429.918V177.434H432.75V188ZM429.752 174.699C429.752 174.276 429.892 173.928 430.172 173.654C430.458 173.381 430.846 173.244 431.334 173.244C431.816 173.244 432.2 173.381 432.486 173.654C432.773 173.928 432.916 174.276 432.916 174.699C432.916 175.129 432.77 175.48 432.477 175.754C432.19 176.027 431.809 176.164 431.334 176.164C430.859 176.164 430.475 176.027 430.182 175.754C429.895 175.48 429.752 175.129 429.752 174.699ZM434.645 182.619C434.645 181.571 434.846 180.637 435.25 179.816C435.654 178.996 436.233 178.361 436.988 177.912C437.75 177.463 438.632 177.238 439.635 177.238C441.061 177.238 442.223 177.674 443.121 178.547C444.026 179.419 444.531 180.604 444.635 182.102L444.654 182.824C444.654 184.445 444.202 185.747 443.297 186.73C442.392 187.707 441.178 188.195 439.654 188.195C438.131 188.195 436.913 187.707 436.002 186.73C435.097 185.754 434.645 184.426 434.645 182.746V182.619ZM437.467 182.824C437.467 183.827 437.656 184.595 438.033 185.129C438.411 185.656 438.951 185.92 439.654 185.92C440.338 185.92 440.872 185.66 441.256 185.139C441.64 184.611 441.832 183.771 441.832 182.619C441.832 181.636 441.64 180.874 441.256 180.334C440.872 179.794 440.331 179.523 439.635 179.523C438.945 179.523 438.411 179.794 438.033 180.334C437.656 180.868 437.467 181.698 437.467 182.824ZM448.99 177.434L449.078 178.654C449.833 177.71 450.846 177.238 452.115 177.238C453.235 177.238 454.068 177.567 454.615 178.225C455.162 178.882 455.442 179.865 455.455 181.174V188H452.633V181.242C452.633 180.643 452.503 180.21 452.242 179.943C451.982 179.67 451.549 179.533 450.943 179.533C450.149 179.533 449.553 179.872 449.156 180.549V188H446.334V177.434H448.99ZM463.727 188C463.596 187.746 463.502 187.43 463.443 187.053C462.76 187.814 461.871 188.195 460.777 188.195C459.742 188.195 458.883 187.896 458.199 187.297C457.522 186.698 457.184 185.943 457.184 185.031C457.184 183.911 457.597 183.052 458.424 182.453C459.257 181.854 460.458 181.551 462.027 181.545H463.326V180.939C463.326 180.451 463.199 180.061 462.945 179.768C462.698 179.475 462.304 179.328 461.764 179.328C461.288 179.328 460.914 179.442 460.641 179.67C460.374 179.898 460.24 180.21 460.24 180.607H457.418C457.418 179.995 457.607 179.429 457.984 178.908C458.362 178.387 458.896 177.98 459.586 177.688C460.276 177.388 461.051 177.238 461.91 177.238C463.212 177.238 464.244 177.567 465.006 178.225C465.774 178.876 466.158 179.794 466.158 180.979V185.559C466.165 186.561 466.305 187.32 466.578 187.834V188H463.727ZM461.393 186.037C461.809 186.037 462.193 185.946 462.545 185.764C462.896 185.575 463.157 185.324 463.326 185.012V183.195H462.271C460.859 183.195 460.107 183.684 460.016 184.66L460.006 184.826C460.006 185.178 460.13 185.467 460.377 185.695C460.624 185.923 460.963 186.037 461.393 186.037ZM474.264 180.08C473.88 180.028 473.541 180.002 473.248 180.002C472.18 180.002 471.48 180.363 471.148 181.086V188H468.326V177.434H470.992L471.07 178.693C471.637 177.723 472.421 177.238 473.424 177.238C473.736 177.238 474.029 177.281 474.303 177.365L474.264 180.08ZM483.59 188H480.758V177.434H483.59V188ZM480.592 174.699C480.592 174.276 480.732 173.928 481.012 173.654C481.298 173.381 481.686 173.244 482.174 173.244C482.656 173.244 483.04 173.381 483.326 173.654C483.613 173.928 483.756 174.276 483.756 174.699C483.756 175.129 483.609 175.48 483.316 175.754C483.03 176.027 482.649 176.164 482.174 176.164C481.699 176.164 481.314 176.027 481.021 175.754C480.735 175.48 480.592 175.129 480.592 174.699ZM488.57 177.434L488.658 178.615C489.407 177.697 490.419 177.238 491.695 177.238C493.056 177.238 493.99 177.775 494.498 178.85C495.24 177.775 496.298 177.238 497.672 177.238C498.818 177.238 499.671 177.574 500.23 178.244C500.79 178.908 501.07 179.911 501.07 181.252V188H498.238V181.262C498.238 180.663 498.121 180.227 497.887 179.953C497.652 179.673 497.239 179.533 496.646 179.533C495.8 179.533 495.214 179.937 494.889 180.744L494.898 188H492.076V181.271C492.076 180.66 491.956 180.217 491.715 179.943C491.474 179.67 491.064 179.533 490.484 179.533C489.684 179.533 489.104 179.865 488.746 180.529V188H485.924V177.434H488.57ZM509.371 188C509.241 187.746 509.146 187.43 509.088 187.053C508.404 187.814 507.516 188.195 506.422 188.195C505.387 188.195 504.527 187.896 503.844 187.297C503.167 186.698 502.828 185.943 502.828 185.031C502.828 183.911 503.242 183.052 504.068 182.453C504.902 181.854 506.103 181.551 507.672 181.545H508.971V180.939C508.971 180.451 508.844 180.061 508.59 179.768C508.342 179.475 507.949 179.328 507.408 179.328C506.933 179.328 506.559 179.442 506.285 179.67C506.018 179.898 505.885 180.21 505.885 180.607H503.062C503.062 179.995 503.251 179.429 503.629 178.908C504.007 178.387 504.54 177.98 505.23 177.688C505.921 177.388 506.695 177.238 507.555 177.238C508.857 177.238 509.889 177.567 510.65 178.225C511.419 178.876 511.803 179.794 511.803 180.979V185.559C511.809 186.561 511.949 187.32 512.223 187.834V188H509.371ZM507.037 186.037C507.454 186.037 507.838 185.946 508.189 185.764C508.541 185.575 508.801 185.324 508.971 185.012V183.195H507.916C506.503 183.195 505.751 183.684 505.66 184.66L505.65 184.826C505.65 185.178 505.774 185.467 506.021 185.695C506.269 185.923 506.607 186.037 507.037 186.037ZM513.561 182.639C513.561 181.018 513.945 179.712 514.713 178.723C515.488 177.733 516.529 177.238 517.838 177.238C518.997 177.238 519.898 177.635 520.543 178.43L520.66 177.434H523.219V187.648C523.219 188.573 523.007 189.377 522.584 190.061C522.167 190.744 521.578 191.265 520.816 191.623C520.055 191.981 519.163 192.16 518.141 192.16C517.366 192.16 516.611 192.004 515.875 191.691C515.139 191.385 514.583 190.988 514.205 190.5L515.455 188.781C516.158 189.569 517.011 189.963 518.014 189.963C518.762 189.963 519.345 189.761 519.762 189.357C520.178 188.96 520.387 188.394 520.387 187.658V187.092C519.736 187.827 518.88 188.195 517.818 188.195C516.549 188.195 515.52 187.701 514.732 186.711C513.951 185.715 513.561 184.396 513.561 182.756V182.639ZM516.383 182.844C516.383 183.801 516.575 184.553 516.959 185.1C517.343 185.64 517.87 185.91 518.541 185.91C519.4 185.91 520.016 185.588 520.387 184.943V180.5C520.009 179.855 519.4 179.533 518.561 179.533C517.883 179.533 517.35 179.81 516.959 180.363C516.575 180.917 516.383 181.743 516.383 182.844ZM530.26 188.195C528.71 188.195 527.447 187.72 526.471 186.77C525.501 185.819 525.016 184.553 525.016 182.971V182.697C525.016 181.636 525.221 180.689 525.631 179.855C526.041 179.016 526.62 178.371 527.369 177.922C528.124 177.466 528.984 177.238 529.947 177.238C531.393 177.238 532.529 177.694 533.355 178.605C534.189 179.517 534.605 180.809 534.605 182.482V183.635H527.877C527.968 184.325 528.242 184.878 528.697 185.295C529.16 185.712 529.742 185.92 530.445 185.92C531.533 185.92 532.382 185.526 532.994 184.738L534.381 186.291C533.958 186.89 533.385 187.359 532.662 187.697C531.939 188.029 531.139 188.195 530.26 188.195ZM529.938 179.523C529.378 179.523 528.922 179.712 528.57 180.09C528.225 180.467 528.004 181.008 527.906 181.711H531.832V181.486C531.819 180.861 531.65 180.38 531.324 180.041C530.999 179.696 530.536 179.523 529.938 179.523ZM538.863 177.434L538.951 178.615C539.7 177.697 540.712 177.238 541.988 177.238C543.349 177.238 544.283 177.775 544.791 178.85C545.533 177.775 546.591 177.238 547.965 177.238C549.111 177.238 549.964 177.574 550.523 178.244C551.083 178.908 551.363 179.911 551.363 181.252V188H548.531V181.262C548.531 180.663 548.414 180.227 548.18 179.953C547.945 179.673 547.532 179.533 546.939 179.533C546.093 179.533 545.507 179.937 545.182 180.744L545.191 188H542.369V181.271C542.369 180.66 542.249 180.217 542.008 179.943C541.767 179.67 541.357 179.533 540.777 179.533C539.977 179.533 539.397 179.865 539.039 180.529V188H536.217V177.434H538.863Z" fill="white"/>
</svg>
